<svg xmlns="http://www.w3.org/2000/svg" viewBox="-5 -10 110 135"><path d="M83.02 26.469H70.809l-4.86-6.512a4.538 4.538 0 0 0-3.609-1.808H44.41c-1.41 0-2.761.68-3.61 1.808l-4.859 6.512h-3.699v-1.91a4.061 4.061 0 0 0-4.05-4.059H21.46a4.063 4.063 0 0 0-4.059 4.059v1.91h-.422a6.985 6.985 0 0 0-6.98 6.98v36.97a6.985 6.985 0 0 0 6.98 6.98H38.7c4.199 2.809 9.25 4.45 14.68 4.45s10.468-1.641 14.671-4.45h14.97a6.985 6.985 0 0 0 6.98-6.98v-36.97a6.985 6.985 0 0 0-6.98-6.98zm-62.621-1.91c0-.578.48-1.059 1.059-1.059h6.73c.578 0 1.05.48 1.05 1.059v1.91H20.4zm-3.418 49.84a3.99 3.99 0 0 1-3.98-3.98V39.93h18.851a26.29 26.29 0 0 0-4.968 15.422c0 7.47 3.11 14.23 8.101 19.051h-18zm36.398 4.453c-12.961 0-23.5-10.54-23.5-23.5 0-12.961 10.539-23.5 23.5-23.5s23.5 10.539 23.5 23.5c0 12.96-10.551 23.5-23.5 23.5zM87 70.422a3.99 3.99 0 0 1-3.98 3.98H71.77c4.988-4.82 8.109-11.577 8.109-19.05 0-5.75-1.852-11.078-4.969-15.422H87zm0-33.492H72.398c-4.82-4.98-11.57-8.078-19.02-8.078-7.45 0-14.211 3.102-19.031 8.078H12.999v-3.48a3.99 3.99 0 0 1 3.98-3.98h20.462l5.769-7.72c.281-.37.73-.601 1.2-.601h17.93c.468 0 .921.23 1.21.601l5.762 7.72h13.71a3.99 3.99 0 0 1 3.981 3.98v3.48z"/><path d="M53.379 39.102c-8.96 0-16.25 7.29-16.25 16.25s7.29 16.25 16.25 16.25 16.25-7.29 16.25-16.25-7.29-16.25-16.25-16.25zm0 29.5c-7.309 0-13.25-5.95-13.25-13.25s5.941-13.25 13.25-13.25 13.25 5.941 13.25 13.25-5.95 13.25-13.25 13.25z"/><path d="M46.328 55.352c2.012-3.078 3.969-5.031 7.05-7.05-4.07-2.602-9.64 2.98-7.05 7.05z"/></svg>