<svg xmlns="http://www.w3.org/2000/svg" width="1583.32" height="4010.51" xml:space="preserve"><style>.st1{fill:#202c33}.st2{fill:none}</style><path d="M1583.32 4010.51c-682.02.41-1235.24-552.14-1235.66-1234.17-.41-682.02 552.14-1235.24 1234.17-1235.66" fill="#b74821"/><path class="st1" d="m1047.54 2288.92-26.25-10.64-42.02-17.05 42.02 42.03 44.85 44.85 22.81-17.77zM29.88 2103.12l6.56 47.13 311.48 311.49 6.09 6.09 243.62 243.62.95.94 1.21-.94 21.6-16.83-247.09-247.08zM892.04 2225.85l-68.27-27.69 190.42 190.42 7.1-5.53 15.71-12.23-15.71-15.71zM672.75 2136.91l-4.48-1.82 3.15 3.15 6.09 6.09 284.73 284.73 22.81-17.77-248.51-248.51zM645.49 2164.16l-64.45-64.45-68.27-27.69 112.44 112.43 6.08 6.09 279 279 22.81-17.77-281.52-281.52zM599.28 2210.38l-173.74-173.74-68.27-27.69 221.72 221.72 6.09 6.09 273.26 273.25 22.8-17.77-275.77-275.77zM553.07 2256.59l-283.03-283.02-68.27-27.69 331.01 331 6.09 6.09 267.51 267.52 22.81-17.77-270.03-270.04zM506.85 2302.81 114.54 1910.5l-68.26-27.69 440.28 440.28 6.09 6.09 261.78 261.78 22.81-17.77-264.3-264.29zM460.64 2349.02 0 1888.38l6.56 47.14 433.79 433.79 6.09 6.09 256.04 256.04 22.81-17.77-258.56-258.56zM414.42 2395.23 14.94 1995.75l6.56 47.14 372.64 372.63 6.09 6.09 250.3 250.31 22.81-17.78-252.82-252.82zM328.09 2493.75l-6.09-6.09-277.18-277.17 6.56 47.13 250.33 250.33 6.09 6.09 197.4 197.41 41.43 41.42 22.8-17.77-23.65-23.65zM281.87 2539.96l-6.09-6.09-216.02-216.02 6.56 47.14 189.18 189.17 6.09 6.09 151.19 151.2 81.89 81.89 22.81-17.77-64.12-64.12zM235.66 2586.18l-6.09-6.09-154.86-154.87 6.55 47.14 128.02 128.02 6.09 6.09 104.98 104.98 122.37 122.37 22.81-17.77-104.6-104.6zM189.45 2632.39l-6.09-6.09-93.71-93.71 6.56 47.14 66.86 66.86 6.09 6.09 58.76 58.77 162.85 162.84 22.81-17.77-145.08-145.07zM143.23 2678.61l-6.09-6.1-32.55-32.55 6.56 47.14 5.7 5.7 6.09 6.09 12.56 12.56 203.32 203.32 22.81-17.77-185.56-185.55zM125.64 2791.22l162.8 162.8 22.8-17.77-192.16-192.17zM140.58 2898.59l95.9 95.91 22.81-17.77-125.27-125.28zM184.53 3034.97l22.81-17.77-58.38-58.38 6.56 47.14 29.01 29.01"/><path class="st2" d="M135.41 3199.13 133.48 2.05M133.48 3200V0"/></svg>