<svg xmlns="http://www.w3.org/2000/svg" version="1.1" viewBox="-5.0 -10.0 110.0 135.0">
 <path d="m50.012 10.969c1.0469 0.015625 2.0391 0.46875 2.7422 1.2461 3.3164 3.3281 6.6367 6.6523 9.9648 9.9688 8.2656 8.2656 16.535 16.531 24.801 24.797 2.0625 2.0625 2.0586 3.9414-0.019531 6.0195-11.508 11.508-23.02 23.016-34.531 34.523-2.0195 2.0195-3.9258 2.0117-5.957-0.019532-11.531-11.527-23.059-23.055-34.59-34.586-0.9375-0.69141-1.4883-1.7852-1.4844-2.9492s0.5625-2.2578 1.5-2.9453c11.57-11.566 23.137-23.137 34.703-34.707h0.003906c0.72266-0.83594 1.7656-1.3242 2.8672-1.3477zm3.5703 47.652 12.227-12.258-12.25-12.242v8.6836h-1.1172-12.754l-0.003906 0.003906c-1.0938-0.12109-2.1836 0.26172-2.9609 1.0391-0.77734 0.78125-1.1562 1.8711-1.0312 2.9648-0.003906 4.3359-0.007812 8.668 0 13.004v0.85156h7.1484l-0.003906-10.633h10.742z"/>
</svg>