<svg xmlns="http://www.w3.org/2000/svg" width="2240.35" height="3370.65" xml:space="preserve"><style>.st2{fill:#202c33}.st5{fill:none}</style><circle transform="rotate(-45.001 757.197 1322.16)" cx="757.21" cy="1322.15" fill="#eda743" r="271.55"/><path d="M819.82 140.94c-188.31-188.09-493.44-187.9-681.53.41l681.94 681.12c188.09-188.31 187.9-493.44-.41-681.53z" fill="#c18957"/><path class="st2" d="M1922.82 1999.74 252.28 331.22l-16.14 16.16 1670.53 1668.53M2194.99 2224.96l-827.07-826.07-8 8L2187 2232.97M1468 2019.47l-1105.49-898.6 28.35-34.88 1105.48 898.61"/><path fill="#2e3f4c" d="m1801.71 1680.85-682.03-752.18 72.89-66.09 682.02 752.18-72.88 66.09"/><path d="m900.45 833.24 154.12 137.64-196.26 64.65 42.14-202.29zm99.2 126.2L918 886.52l-22.32 107.17 103.97-34.25z" fill="#b74821"/><path class="st5" d="M1.93 3369.78 0 172.71l2238.43-1.35 1.92 3197.07"/><path class="st5" d="M0 3370.65v-3200h2240v3200"/></svg>