<svg xmlns="http://www.w3.org/2000/svg" width="711.7" height="732.25" xml:space="preserve"><style>.st0{fill:#eda743}.st1{fill:#b74821}.st2{fill:#202c33}</style><g id="J_1_"><path class="st0" d="M151.37 268.59c-1.3.08-2.63.12-4 .12-12.72 0-22.18-3.23-28.36-9.7-6.19-6.46-9.28-17.29-9.28-32.48v-3.88H0v4.36c0 41.69 12.99 72.4 38.96 92.11 25.98 19.72 63.35 29.57 112.12 29.57h.29v-80.1z"/><path class="st1" d="M184.99 226.54c0 15.2-3.1 26.02-9.28 32.48-5.52 5.77-13.64 8.95-24.36 9.58v80.11c48.62-.04 85.9-9.89 111.82-29.57 25.98-19.71 38.96-50.42 38.96-92.11V9.35H184.99v217.19z"/><path class="st2" d="M168.24 268.71c-.74 0-1.46-.01-2.18-.04l6.18 5.65v-5.74c-1.3.09-2.63.13-4 .13zM130.6 226.54v-2.19l-1.84-1.68h-13.02l15.4 14.09c-.36-3.17-.54-6.57-.54-10.22zM86.08 222.66l86.16 78.79v-11.91L99.1 222.66zM56.43 222.66l115.81 105.91v-11.91l-102.79-94zM26.77 222.66 164.5 348.62c2.45.05 4.93.09 7.44.09h.29v-4.92L39.79 222.66H26.77zM21.77 245.2l110.42 100.99c4.77.65 9.68 1.18 14.74 1.57L20.96 232.55c.12 4.34.39 8.56.81 12.65zM30.02 279.86l61.83 56.55c6.12 2.28 12.61 4.25 19.47 5.9l-86.59-79.19c1.39 5.9 3.15 11.48 5.29 16.74zM206.19 181.27v59.81c0 15.2-3.1 26.02-9.28 32.48-5.52 5.77-13.64 8.95-24.36 9.58v80.11c48.63-.04 85.9-9.89 111.82-29.57 25.98-19.71 38.96-50.42 38.96-92.11v-60.3H206.19z"/></g><path class="st1" d="M536.88.04v68.64c1.47-.07 2.95-.12 4.48-.12 19.66 0 34.69 5.96 45.08 17.86 10.39 11.91 15.58 27.98 15.58 48.19v26.59c0 20.22-5.19 36.29-15.58 48.19-10.39 11.91-25.41 17.87-45.08 17.87-1.52 0-3.01-.05-4.48-.12v68.66c.11 0 .22.01.32.01l44.04 49.44h109.27l-65.23-66.06c22.99-11.35 40.51-28.04 52.56-50.06 12.05-22.02 18.07-49.09 18.07-81.22 0-48.19-13.44-84.89-40.3-110.1C628.74 12.61 590.65 0 541.36 0"/><path class="st0" d="M496.49 209.39c-10.25-11.91-15.37-27.97-15.37-48.19v-8.47h-93.89v.16c1.72 43.05 12.95 79.01 38.85 104.07 25.83 25.01 62.78 37.95 110.81 38.84v-68.66c-17.48-.85-30.95-6.76-40.4-17.75z"/><path class="st2" d="m449.67 116.39 47.28 47.28c-.02-.82-.04-1.64-.04-2.47v-7.77l-37.65-37.65-4.49-4.49-37.53-37.53a124.03 124.03 0 0 0-3.04 7.16l35.47 35.47zM533.75 223.71l18.92 18.92v-10.2l-5.79-5.79c-4.7-.56-9.07-1.54-13.13-2.93zM406.93 189.86l100.92 100.92c4.07.91 8.26 1.69 12.55 2.35L404.88 177.61c.56 4.19 1.24 8.27 2.05 12.25zM418.54 224.71l53.63 53.63c5.55 2.79 11.4 5.24 17.56 7.36l-78.16-78.16a133.9 133.9 0 0 0 6.97 17.17zM542.83.38l9.84 9.85V.04M521.66 2.45l20.97 20.97 4.49 4.49 5.55 5.55v-10.2l-.44-.44-4.49-4.49-17.01-17.01M536.11 29.94 510.57 4.4c-2.82.58-5.58 1.22-8.29 1.91l28.73 28.73 4.49 4.49 17.17 17.17V46.5l-12.06-12.06-4.5-4.5zM523.88 51.16l18.67 18.67c2.9-.53 5.95-.89 9.12-1.08l-22.68-22.68-36.82-36.83c-2.56.83-5.07 1.73-7.53 2.67l34.75 34.75 4.49 4.5zM512.26 62.78l13.04 13.04c2.21-1.22 4.53-2.3 6.99-3.22l-14.93-14.93-4.49-4.49-37.37-37.37c-2.31 1.08-4.57 2.22-6.79 3.42l39.06 39.06 4.49 4.49zM500.64 74.4l11.82 11.82c1.6-1.83 3.31-3.52 5.13-5.07L505.74 69.3l-4.49-4.49-40.74-40.74c-2.07 1.33-4.09 2.71-6.06 4.15l41.7 41.7 4.49 4.48zM489.02 86.02l14.41 14.41c1.05-2.33 2.21-4.56 3.52-6.69l-12.82-12.82-4.49-4.49-42.46-42.46c-1.38 1.18-2.74 2.39-4.07 3.63-.43.4-.85.82-1.27 1.23l42.7 42.7 4.48 4.49zM477.4 97.64l20.76 20.76c.47-2.9 1.07-5.7 1.82-8.39L482.5 92.54l-4.49-4.49-42.54-42.55c-1.59 1.82-3.12 3.68-4.6 5.6l42.04 42.04 4.49 4.5zM465.78 109.26l31.13 31.13v-5.78c0-1.47.04-2.91.09-4.33l-26.11-26.11-4.49-4.49-40.92-40.92c-1.34 2.07-2.61 4.2-3.83 6.37l39.65 39.65 4.48 4.48zM442.54 132.5l59.47 59.47c-1.65-4.32-2.9-8.97-3.75-13.95l-50.62-50.62-4.49-4.49-32.33-32.33c-.8 2.6-1.55 5.26-2.23 7.97l29.46 29.46 4.49 4.49zM431.53 134.53l-25.25-25.25c-.53 2.88-.99 5.82-1.39 8.81l21.54 21.54 4.49 4.49 121.75 121.75v-10.2L436.02 139.02l-4.49-4.49zM419.91 146.15l-16.24-16.24c-.24 3.17-.41 6.4-.52 9.69l16.15 16.15 133.37 133.37v-10.2L424.4 150.64l-4.49-4.49zM408.29 157.77l-5.23-5.23c.07 3.62.22 7.16.43 10.64l4.19 4.19 127.54 127.54c3.56.31 7.19.53 10.89.69L412.78 162.26l-4.49-4.49zM602.23 220.9c10.39-11.91 15.58-27.98 15.58-48.19v-15.62h93.87c.01.78.03 1.54.03 2.33 0 48.19-13.44 84.89-40.3 110.1-26.87 25.2-64.96 37.81-114.25 37.81-1.5 0-3-.01-4.48-.04v-68.64c1.47.07 2.95.12 4.48.12 19.65-.01 34.68-5.97 45.07-17.87z"/><g id="R_1_"><path class="st1" d="M673.5 562.74c10.56-15.85 15.85-33.57 15.85-53.15 0-17.72-4.12-34.11-12.35-49.19-8.24-15.07-20.52-27.04-36.83-35.9-16.32-8.86-35.98-13.29-58.97-13.29h-91.97v73.2h66.33c8.08 0 14.92 2.8 20.51 8.39 5.6 5.59 8.39 12.59 8.39 20.98s-2.8 15.46-8.39 21.21c-5.59 5.75-12.43 8.62-20.51 8.62h-66.33v71.33h36.95l56.88 117.02h115.62L627.34 597.7c20.2-7.45 35.59-19.11 46.16-34.96z"/><path class="st0" d="M387.22 571.71H489.6v160.54H387.22z"/><path class="st2" d="M506.93 411.22h-11.45l2.78 2.78 9.61 9.62v-11.45zM405.43 529.81l102.44 102.45v-11.45L405.43 518.36zM405.43 555.89l102.44 102.45v-11.45L405.43 544.44zM405.43 581.97l102.44 102.45v-11.45L405.43 570.52zM405.43 608.05 507.87 710.5v-11.45L405.43 596.6zM405.43 634.13l97.84 97.84h4.6v-6.84L405.43 622.68zM405.43 660.21l71.76 71.76h11.45l-83.21-83.21zM405.43 686.3l45.68 45.67h11.45l-57.13-57.12zM405.43 712.38l19.6 19.59h11.45l-31.05-31.04zM405.43 731.97h4.97l-4.97-4.96zM485.9 416.28l-5.05-5.06H469.4L480.18 422l5.04 5.04 22.65 22.66v-11.45l-16.93-16.93zM472.86 429.32l-18.09-18.1h-11.45l23.82 23.82 5.04 5.04 35.69 35.7v-11.45l-29.97-29.97zM459.82 442.36l-31.13-31.14h-11.45l36.86 36.86 5.04 5.04 48.73 48.74v-11.45l-43.01-43.01zM446.78 455.4l-41.35-41.36v11.45l35.63 35.63 66.81 66.82v-11.45l-56.05-56.05zM433.74 468.44l-28.31-28.32v11.45l22.59 22.59 5.04 5.04 74.81 74.82v-11.45l-69.09-69.09zM420.7 481.48l-15.27-15.28v11.45l9.55 9.55 5.04 5.04 87.85 87.86v-11.45l-82.13-82.13zM405.43 492.28v11.45l1.55 1.55 100.89 100.9v-11.45l-95.17-95.17z"/><path class="st2" d="M658.81 617.18c-16.32 8.86-35.98 13.29-58.97 13.29h-91.97v-73.2h66.33c8.08 0 14.92-2.8 20.51-8.39 5.6-5.59 8.39-12.59 8.39-20.98v-.1h104.8c.06 1.42.1 2.85.1 4.3 0 17.72-4.12 34.11-12.35 49.18-8.24 15.07-20.52 27.04-36.84 35.9z"/></g><g id="N_1_"><path class="st0" d="M.68 576.75h92.4v155.5H.68z"/><path class="st1" d="M216.84 575.74 93.08 430.56v153.48l128.25 148.21h86.55V423.71h-91.04z"/><path class="st2" d="M95.08 423.71H84.07l24.26 24.26v-11.01zM58.98 423.71l49.35 49.35v-11.02l-38.34-38.33zM33.89 423.71l74.44 74.44v-11.02l-63.42-63.42zM17.73 423.71v8.92l90.6 90.6v-11.01l-88.51-88.51zM17.73 457.72l90.6 90.6v-11.01l-90.6-90.61zM17.73 482.8l90.6 90.61v-11.02l-90.6-90.6zM17.73 507.89l90.6 90.61v-11.02l-90.6-90.6zM17.73 532.98l90.6 90.6v-11.01l-90.6-90.61zM17.73 558.07l90.6 90.6v-11.01l-90.6-90.61zM17.73 583.15l90.6 90.61v-11.02l-90.6-90.6zM17.73 608.24l90.6 90.61v-11.02l-90.6-90.6zM17.73 633.33l89.13 89.13 1.47 1.47v-11.01l-90.6-90.61zM17.73 683.5l48.74 48.75h11.02l-59.76-59.76zM17.73 708.59l23.66 23.66H52.4l-34.67-34.67zM17.73 732.25h9.58l-9.58-9.59zM99.82 729.5l-82.09-82.1v11.02l73.83 73.83h11.02l-1.1-1.1zM324.92 665.84V410.25h-91.03v149.87z"/></g></svg>