<svg xmlns="http://www.w3.org/2000/svg" width="2622.41" height="3200" xml:space="preserve"><style>.st0{fill:#eda743}.st1{fill:#b74821}.st2{fill:#202c33;stroke:#202c33;stroke-miterlimit:10}</style><path class="st0" d="M927.05 1269.09c0 378.45 306.79 685.24 685.24 685.24V583.85c-378.44 0-685.24 306.79-685.24 685.24z"/><circle class="st1" cx="230.02" cy="937.05" r="65.55"/><circle class="st1" cx="1584.49" cy="1275.37" r="239.36"/><path class="st2" d="m30.84 832.027 954.84 954.84-30.123 30.122L.717 862.15zM467.384 1358.876l783.814 783.813-75.95 75.95-783.813-783.814z" stroke-width=".99999"/><path d="M1605.7 1665.95h-35.24c-146.06 0-268.98-98.78-305.8-233.15v953.81c0 175.15 141.98 317.13 317.13 317.13h12.58c175.15 0 317.13-141.98 317.13-317.13V1432.8c-36.82 134.38-159.74 233.15-305.8 233.15z" fill="#2e3f4c"/><path class="st1" d="m840.46 1501.39-181.43-161.87-49.47 238.06z"/><path class="st0" d="m594.52 2035.32-276.1 233.13 338.02 122.88zM2613.73 2532.3l-635.49-635.49c-21.68 3.9-42.96 8.95-63.68 15.32l683.85 683.85M2570.14 2668.66l-728.26-728.26c-17.63 8.35-34.77 17.58-51.3 27.69l751.87 751.87M2500.62 2779.07l-769.14-769.14c-14.5 11.76-28.43 24.19-41.65 37.35l773.44 773.44M2409.56 2867.95l-766.96-766.96c-11.55 14.96-22.39 30.5-32.37 46.63l752.7 752.7M2296.81 2935.14l-721.41-721.41c-8.23 18.59-15.56 37.67-21.72 57.28l685.85 685.85M2157.49 2975.76l-622.71-622.71c-3.59 23.89-5.51 48.3-5.9 73.09l555.51 555.52M1974.13 2972.33l-435.92-435.92c7.39 39.4 18.91 77.33 34.26 113.26l288.4 288.4M2616.71 2355.35l-461.52-461.52c-25.99-3.79-52.55-5.83-79.59-5.83-1.71 0-3.4.11-5.11.13l551.92 551.92"/><path class="st2" d="M1722.87 2866.76 582.29 1726.18l-11.03 11.04L1711.84 2877.8"/><path d="m732.92 1262.09-160.54 27.19 56.73-152.63 103.81 125.44zm-126.49-.99 85.05-14.4-55-66.46-30.05 80.86z" fill="#202c33"/><path fill="none" d="M2131.39 0v3200"/></svg>