<svg xmlns="http://www.w3.org/2000/svg" width="3859.09" height="3343.98" xml:space="preserve"><style>.st1{fill:#f2d4c0}.st2{fill:#eda743}.st3{fill:#b74821}</style><path fill="#f4f1e0" d="M2674.78 3317.34H431.97"/><path class="st1" d="M3502.75 1342.94H1952.79l774.98 1342.3"/><path class="st2" d="m1177.33 0 774.98 1342.3L2727.29 0"/><path class="st1" d="m778.4 1993.71 774.97 1342.3 774.98-1342.3H778.4"/><path class="st2" d="M778.4 3335.16h1549.95l-774.98-1342.3-774.97 1342.3"/><path class="st1" d="m774.98 1988.92 774.97-1342.3H0M3084.11 2001.68l-774.97 1342.3h1549.95"/><path class="st3" d="M776.82 1990.75h1211.94L1382.79 941.18 776.82 1990.75M2673.07 926.78h-480.61l240.3 416.23 240.31-416.23"/><path d="M1723.42 2545.4h-340.08l170.04-294.52 170.04 294.52zm-260.13-46.16h180.17l-90.09-156.03-90.08 156.03z" fill="#202c33"/><path class="st1" d="M1546.59 1104.86H1750l-101.71 176.16-101.7-176.16zm152.88 28.02h-104.4l52.2 90.41 52.2-90.41z"/><path fill="none" d="M2673.37 3317.34h-2240"/></svg>